<svg xmlns="http://www.w3.org/2000/svg" width="2.4in" height="2.4in" viewBox="0 0 170.5 170.2"><ellipse cx="92.9" cy="93.5" fill="#16989e" rx="75.6" ry="74.1"/><circle cx="75.7" cy="76.1" r="70.3" fill="none" stroke="#193b46" stroke-miterlimit="10" stroke-width="6"/><path fill="#f7d366" d="M45 34.7c1-2.2 4-7.7 6.8-7s5.3 5.5 6.5 7.7l4-3.1c-2.1-2.5-4.9-7.1-8.6-6.7s-7.6 4.2-9.9 6.7l3.9 3.1c.8-1.7 3-4.6 5.1-4.2s3.8 3.4 4.9 4.6 5.7-1.2 3.5-3.6-5.5-6.4-9.4-6.1-7.1 3.7-8.4 6.7 1.8 5.4 3.9 3.1a33.3 33.3 0 0 1 3.9-3.6c.6-.4 2.5-2 3.1-1.8s1.5 2 1.4 1.9l3 3.5c1.9 2.2 5.3-.7 3.9-3.1s-6-10.1-10.6-10.6-9.6 6.2-11.3 10 3 5.5 4.3 2.5z"/><path fill="#f7d366" d="M63.1 35.5c6-6.5 17.8-4.7 24.5-.9 2.5 1.4 5.1-1.9 3.1-3.9a18.2 18.2 0 0 0-5.6-3.9l-1.9 4.6 3.1 1.9 3.9-3c-10.6-9.7-26.1-3.4-35.2 5.2s-13.5 26.7-1.5 33.9a2.4 2.4 0 0 0 3.7-2.1c-.3-5.1-2.6-9.1-1.6-14.4s2.2-10.5 5.3-13.9 10.6-4.4 14.9-4.5c5.8-.1 10.9 2.5 15.9 5.1 1.3.6 3.3.2 3.6-1.5l.3-1.8-4.1 1.1a30.6 30.6 0 0 1 7.4 12.5c1.2 4.2 3.1 13.3-2.7 14.9l3.1 3.1c3.7-11.5 3.2-24.5-7.4-32.1-1.7-1.2-4.3.9-3.6 2.9a73.1 73.1 0 0 1 3.5 29l5-.7c-3.2-10.3-3.7-21.4-9.5-30.9-1.5-2.5-5.1-.8-4.6 2a225.5 225.5 0 0 1 3.9 28.4l4.9-.7c-2-11.1-4.2-22.1-9.7-32.1-1.2-2.2-4.6-1.2-4.7 1.2a32 32 0 0 0 1.6 10.2c.8 2.6 5 2.3 4.9-.7a59 59 0 0 1 .3-8.4l-4.3 1.7.9 1.5 4.2-2.5-5.4-4.4a2.7 2.7 0 0 0-4 .5c-2.2 4.2-.1 9 .9 13.3L81 65.8c.8 3.1 5.4 1.7 4.8-1.4l-3.2-18.7-4.5 1.9A56.7 56.7 0 0 1 83 63.2l4.6-1.9a49.2 49.2 0 0 1-7.1-18l-4.6 1.9a102.8 102.8 0 0 1 6.8 24.4l4.6-1.9c-5.8-10.4-4.9-26-15.3-33.4-1.3-.9-3.2.1-3.6 1.5a5 5 0 0 0 1.3 5.3 2.5 2.5 0 0 0 4.1-1.1 7.8 7.8 0 0 1 1.3-3.4l-2.8 1.1 1.5.6c2.6 1.1 4.5-3.4 1.9-4.5-7.4-3.3-11.7 3-16.7 7.4l4.2 2.5a7.6 7.6 0 0 1 1.9-4.5c1.5-2-.5-5.8-3.1-4-9.7 7.2-8.8 24.7-6 35 .8 3.1 5.4 1.8 4.8-1.3-2-9.6 1.4-18.7 7.2-26.2l-4.3-2.6a40.3 40.3 0 0 0-.7 30.7l4.2-2.4a11.3 11.3 0 0 1-3.7-6.5c-.5-2.8-5.1-2.2-4.9.6a26.1 26.1 0 0 0 2.8 10.6 2.5 2.5 0 0 0 4.3 0c2.3-4.3 1.6-9.6 1.5-14.4-.1-6.6.2-13.2 3.7-19l-4.7-1.3c-.6 11.2-1 22.4 1.6 33.4.6 2.7 5.2 2.2 4.9-.6-.9-9-1.7-17.8 1.3-26.4l-4.9-.7c.8 8.9 2 17.7 3.6 26.5.6 2.7 5.2 2.1 5-.7a144.8 144.8 0 0 1-1.1-24.6l-4.9.7a181.9 181.9 0 0 1 6.8 21.7l4.8-1.4-4-10.4a2.5 2.5 0 0 0-4.8 1.3 155.8 155.8 0 0 0 3.9 16.7c1 3.1 5.8 1.8 4.9-1.3a139.7 139.7 0 0 1-4-16.7l-4.8 1.3 4 10.5c1.1 2.9 5.6 1.8 4.8-1.4a187.8 187.8 0 0 0-6.8-21.7 2.5 2.5 0 0 0-4.9.7 144.8 144.8 0 0 0 1.1 24.6l4.9-.7a236.7 236.7 0 0 1-3.5-25.1 2.6 2.6 0 0 0-5-.7c-3.1 9-2.4 18.4-1.4 27.8l4.9-.7c-2.5-10.6-2-21.4-1.4-32.1.2-2.6-3.4-3.3-4.6-1.3a32.1 32.1 0 0 0-4.3 14.4c-.2 3-.1 6.1 0 9.1s.6 7.2-.9 10h4.3a20.7 20.7 0 0 1-2.1-8.1l-4.9.7a15.5 15.5 0 0 0 4.9 8.7c1.7 1.5 5.2.1 4.2-2.4a35.1 35.1 0 0 1 .2-26.8c1.2-3-2.3-5.1-4.3-2.6-6.7 8.7-9.9 19.3-7.7 30.1l4.8-1.3a43 43 0 0 1-1.5-14.3c.4-4.5 1.3-12.1 5.3-15l-3.1-4a15.3 15.3 0 0 0-3.1 6.7 2.5 2.5 0 0 0 4.2 2.5c2.5-2.3 6.5-8.5 10.6-6.7l1.9-4.6-1.5-.6a2.5 2.5 0 0 0-2.8 1.2 14.6 14.6 0 0 0-1.8 4.5l4.2-1.1v-.4l-3.7 1.5c5.2 3.7 6.4 11.2 8 16.9a68.1 68.1 0 0 0 5.4 14.7c1.5 2.7 5 .7 4.6-1.9a102.8 102.8 0 0 0-7.3-25.6c-1.2-2.8-5.1-.7-4.6 1.9a55.2 55.2 0 0 0 7.6 19.2c1.6 2.5 5 .8 4.6-1.9a61.1 61.1 0 0 0-5.4-16.8c-1.4-2.8-5-.7-4.6 1.9L81 65.8l4.8-1.4c-1.1-4.6-2.3-9.3-3.4-14-.5-2.2-1.1-4.4-1.6-6.6s-2.2-6.4-1.1-8.4l-4 .5 5.5 4.4a2.5 2.5 0 0 0 4.1-2.5 5.8 5.8 0 0 0-2.1-3.6 2.6 2.6 0 0 0-4.3 1.8 59 59 0 0 0-.3 8.4l4.9-.6a30.1 30.1 0 0 1-1.4-8.9l-4.6 1.3c5.2 9.6 7.3 20.3 9.2 30.9.5 2.8 5.1 2.2 4.9-.6a231.7 231.7 0 0 0-4-29.8l-4.6 2c5.5 9 5.9 19.8 8.9 29.7a2.5 2.5 0 0 0 4.9-.7 78.5 78.5 0 0 0-3.7-30.4l-3.7 2.9c8.7 6.2 8 17.3 5.1 26.4a2.5 2.5 0 0 0 3 3.1c15.7-4.5 4.4-28.6-2.5-35.9-1.2-1.2-3.9-.8-4.2 1.1l-.3 1.8 3.7-1.5c-5.5-2.8-11.2-5.6-17.5-5.7s-13.4 1-17.9 4.6-5.5 8.4-6.9 13a39.7 39.7 0 0 0-1.8 9.6c-.1 3.9 1.9 6.9 2.1 10.6l3.8-2.2c-9.9-6-2.6-22.1 4.2-27.5s18.5-11.1 26.4-3.8c2 1.8 5.7-.6 4-3a9.9 9.9 0 0 0-6.1-4.3c-2.6-.6-4.6 3.4-1.9 4.6a15.7 15.7 0 0 1 4.5 3.1l3.1-3.9c-8.8-4.9-23.1-6.5-30.6 1.6-2.2 2.4 1.3 5.9 3.5 3.6z"/><path fill="#eaa12e" d="M54.7 46.2a27.9 27.9 0 0 1 5-7.3c1.8-1.9 4-4.4 6.3-5.7l-1.9.2.5.2-1.5-1.1c2.6 4-2.2 12.3-7.1 11l1.4 3.6a98.1 98.1 0 0 1 8.6-9.6l-3.9-3.1c-.8 1.3-6.5 10.3-8.4 8.8s-5.8.6-3.9 3 7.2 4.3 10.7 1.1-1.2-5.7-3.5-3.6-2.1 1-2.9 0l-3.9 3c6.8 5.6 13-4.7 16.2-9.7 1.6-2.5-1.9-5-3.9-3.1a105.8 105.8 0 0 0-9.4 10.7c-1 1.3.1 3.3 1.5 3.7 8.8 2.4 17-9.4 13.4-17.2-2.2-4.9-6-1.3-8.6 1.1a37.4 37.4 0 0 0-9 11.5c-1.3 2.9 3 5.5 4.3 2.5zm6.5 91.4c-4.6-2.3-8.6-4.2-11.8-8.2s-5.7-8-6.9-13-2.2-10.4-1.2-15.5a60.4 60.4 0 0 1 4.4-13l-4.6.6c4.7 7.5 7.3 16.5 10.2 24.8 1.5 4.2 2.9 8.4 4.2 12.7s3.5 9.8 2.8 14.8c-.3 2.4 2.9 3 4.3 1.8 7-5.9 2.8-20.4.6-27.6-3-10.4-9.9-18.4-17.2-26.2-2-2-5.6.7-4 3.1a116.3 116.3 0 0 1 10.8 18.7 66.3 66.3 0 0 1 3.8 11.4c.5 2.1 2.7 10.4 1 11.9l2.4-.6c-5.8-1.8-10.3-9.4-12.4-14.6a47 47 0 0 1-3.1-18.9c0-.4.5-4.8-1.6-2.5-.3.3 1.5 4 1.7 4.4 1.2 3.3 2.5 6.5 3.7 9.7 2.5 6.4 5.7 13.3 5.8 20.2l4.3-1.8c-3.6-3.7-5.3-8.9-7.2-13.6a72 72 0 0 1-4.2-14.4l-4.6 2a51.5 51.5 0 0 1 3.7 11.5c.6 3.2 5.5 1.9 4.8-1.3a58.2 58.2 0 0 0-4.2-12.8c-1.2-2.7-5-.6-4.5 2a78.1 78.1 0 0 0 5.5 17.6c1.9 4.5 3.7 9 7.1 12.5a2.5 2.5 0 0 0 4.3-1.7c-.1-8.1-3.8-15.9-6.7-23.3-1.4-3.8-2.9-7.6-4.4-11.4-.7-1.8-1.1-4.3-3.1-5-5.4-2.1-5.4 6.6-5.4 9.4a50.5 50.5 0 0 0 4.2 21 33.7 33.7 0 0 0 10.9 13.6c4.8 3.5 8.3 2.3 8.3-3.8 0-15.7-8.1-30.2-16.5-42.8l-4 3.1c5.7 6 11.6 12.3 14.7 20.1a59.9 59.9 0 0 1 3.3 12.6c.7 3.8 2.2 11-1.3 13.9l4.2 1.8c.7-4.6-.9-9-2.2-13.4s-3.2-10.3-5-15.4c-3.1-8.8-5.8-18.1-10.7-26-1.2-2-3.7-1.4-4.6.6-4.6 11.1-6.1 21-2.7 32.7a33.8 33.8 0 0 0 6.8 12.3c3.9 5.1 8.1 7.5 13.8 10.3 2.8 1.4 5.4-2.9 2.5-4.3zm-19.4-108a4.8 4.8 0 0 0-1.3 4.4c.6 1.9 2.7 2.3 4.4 1.8a6.3 6.3 0 0 0 3.6-2.8 40.1 40.1 0 0 1 3-3.9c2.1-2.5-1.4-6-3.5-3.6l-2.8 3.6c-.6.7-1 2-2.1 1.9l1.3.3h-.2l1.1 1.5c-.1.3-.1.5.1.4 2.1-2.4-1.4-5.9-3.6-3.5z"/><path fill="#eaa12e" d="M47 31.5c.7-1.1 1.8-3 3-3.6s2.7-.1 3.8 1.1a54.6 54.6 0 0 1 4.7 6.8c1.8 2.6 6.2.1 4.3-2.5s-5.2-9.6-9.8-10.9-7.9 3.3-10.3 6.5 2.4 5.1 4.3 2.6z"/><path fill="#eaa12e" d="M51.5 30.8c1.7-.6 2.2.1 3.3 1.4s2.1 2.7 3.2 4.1a2.5 2.5 0 0 0 3.6-3.6c-3-3.7-5.9-8.7-11.4-6.7-3 1-1.7 5.8 1.3 4.8z"/><path fill="#f7d366" d="M111.5 32.4c-2.8-4.9-6.9-10.4-13.2-9.2l2 4.5 1-.2c2.8-.2 3.5-4.1.7-4.9l-.7-.2-.7 4.9 1.5.3c2.9 1.3 5.3-2.6 2.5-4.3a3.6 3.6 0 0 0-1.9-.8 2.5 2.5 0 0 0-2 4.6c-1.1-.8.2 2.5.8 3.2s2.5 4.4 4.3 5.3 5.8-1.9 4.4-4.8-5.7-5.1-9.7-5.6-8 5.2-10.7 8.2l4.2 1.1c-.4-1.6 5.1-6.4 6-7.5s-1.3-5.9-3.5-3.5-8.5 7.3-7.3 12.3a2.4 2.4 0 0 0 4.1 1.1l3.6-3.9c.6-.8 1.7-2.5 2.7-2.7s6.2 1 6 2.7l.8-1.7-.4.4 1.7-.7h-.7l1.8.7a13.4 13.4 0 0 1-1.8-2.8c-.6-.8-1.5-1.5-2.1-2.3l.2 1.9c.4-2.5.6-4.2-1.8-5.8l-2 4.6.8.3 2.5-4.3a7.9 7.9 0 0 0-4-1c-2.8 0-3.3 4.1-.6 4.9l.7.2.6-4.9a8.6 8.6 0 0 0-3.5.9c-2.8 1.2-.7 5.1 1.9 4.6s6.1 4.5 7.4 6.9 6 .3 4.4-2.5zm-56 36.7c0 .4-3 3.4-3.4 4l-4.7 6.1 12.5 7.2a6.2 6.2 0 0 1 1.6-3.6L50.9 72.2c-6.2 7-11.7 15-14.5 24s-1.1 19 2.6 27.9 10.2 14.2 18.5 17.9c4.3 1.9 8.4 3.4 13.2 3.2s9.2-2.1 13.9-3l-5.8-13.7a13.9 13.9 0 0 1-5.8 2.6l4 14.5a76.5 76.5 0 0 0 17.9-7c8.7-4.6 1.1-16.8-7.6-12.9a27.6 27.6 0 0 0-9 6.6c-5.4 6 1.7 16.8 9.1 11.8s14.2-8.6 19.4-14.6L95 120.4a26.1 26.1 0 0 1-10.7 9.6l9.1 11.8c7.7-7.2 15.5-14.7 19.6-24.5l-13.9-3.8a20.2 20.2 0 0 1-2.5 8l13.7 5.8a87.5 87.5 0 0 0 4.7-23.7l-14 3.8a4.2 4.2 0 0 1 .1 2.5h15c.7-14.7-6.9-27.5-16.1-38.3-5.2-6.1-11.3-8.6-19.3-7.3a39.4 39.4 0 0 0-17 7.1 41.6 41.6 0 0 0-17.6 33.7 43.1 43.1 0 0 0 5.2 20.5c3.6 6.5 8.7 9.2 15.9 9.8 13.3 1 26.3-4.3 32.3-16.9S103 89 92.2 79.9c-5.3-4.4-12.5-6.4-19.1-3.9s-10.4 8.2-12.9 14.1c-4.8 11.4-5.6 31.7 9.1 36.3 18.7 6 22.6-20.3 19.8-32.7-.9-4-2.5-8.3-6.6-10a8.6 8.6 0 0 0-10.3 2.8c-4.7 6.2-4.8 17.5-4.4 24.9.6 9.6 15.6 9.7 15 0a54.1 54.1 0 0 1 .2-9 18.6 18.6 0 0 1 .6-3.4c0-.2 1.4-4.1.4-3.2L78.7 98h.9l-5.3-2.2c1.3 1.3.9 8 .7 9.7s-1.1 6.6-1.5 6.7-1.4-5-1.4-6a23.1 23.1 0 0 1 1.6-9.7c2-5.1 5.8-9.3 10.2-3.7a18.7 18.7 0 0 1 2.7 18.1 15.7 15.7 0 0 1-12.8 9.6c-1.8.2-6.5.7-8.3-.4s-3.1-6.1-3.7-8.3a26.9 26.9 0 0 1 15.5-31c2.2-1 6.6-2.8 9-1.8s5.4 5.9 7.1 8.3c4.8 6.8 8.1 14.1 7.7 22.6s14.2 9.5 15 0a18.7 18.7 0 0 0-2.2-10.1c-3.3-7.3-13.5-3-13.9 3.8a70 70 0 0 1-4.2 19.7c-2.9 8 9.7 13.2 13.7 5.8a39.1 39.1 0 0 0 4.6-15.6c.5-7.1-11.1-10.6-14-3.8-3.7 8.8-10.4 15.1-17.3 21.5s1.8 15.6 9.1 11.7a41.7 41.7 0 0 0 16-14.9c4.5-7.1-6.2-15.6-11.8-9.1s-10.8 8.5-16.2 12.2l9 11.8a17 17 0 0 1 6-4.3l-7.6-12.9a58.6 58.6 0 0 1-14.3 5.4c-9.4 2.3-5.4 16.6 4 14.5a27.2 27.2 0 0 0 9.4-4.1c7-5 2.7-15.3-5.8-13.7-6.3 1.1-10.8 3.5-17 .6s-9.2-5.7-11.3-11.3-3.3-12.2-.8-18.6a53.1 53.1 0 0 1 10-15.7c6.3-7.2-4-17.8-10.6-10.6a19.5 19.5 0 0 0-5.4 10.3c-1.3 6.4 7.4 13.8 12.5 7.3s11.8-12.6 12.5-20.7-14.2-9.5-15 0z"/><path fill="#f7d366" d="M70.3 154.5a38.4 38.4 0 0 0 5.6-11.5c1.2-3.7-4.6-5.3-5.7-1.6a37.8 37.8 0 0 1-5.1 10c-2.2 3.2 3 6.2 5.2 3.1z"/><path fill="#eaa12e" d="M59.9 64.7c-12.4 10-24.4 25.4-24.6 42a2.5 2.5 0 0 0 3.1 2.4C56.9 104.3 71 87 64.8 67.5a2.5 2.5 0 0 0-4.1-1.1 87.5 87.5 0 0 0-14.8 17.4c-3.4 5.4-8.3 12.6-7.7 19.3a2.6 2.6 0 0 0 3.8 2.2 38.8 38.8 0 0 0 22.2-31.8c.2-2.2-2.9-3.1-4.3-1.7a64.2 64.2 0 0 0-17.2 27.1c-.9 2.6 2.4 3.9 4.1 2.5 6.1-5 9.4-11.8 12.5-18.8l-4.6-2A78.2 78.2 0 0 1 49.4 91c-1.6 2.8 2.7 5.3 4.3 2.5A72.9 72.9 0 0 0 59.5 82c1.1-2.6-3.4-4.6-4.5-2-2.9 6.7-5.9 13.2-11.7 17.8l4.2 2.5a58 58 0 0 1 15.9-25l-4.2-1.8A33.9 33.9 0 0 1 39.4 101l3.8 2.1c-.5-6 4.7-13.2 7.9-18.1a86.1 86.1 0 0 1 13.1-15.1L60 68.8c5.3 17-7 31.4-22.9 35.5l3.2 2.4c.2-15.3 11.8-29.4 23.1-38.5 2.5-2-1-5.5-3.5-3.5zm44.6 21.2c5.2 10.3 7.5 22.2 3.5 33.4a31.1 31.1 0 0 1-9.7 13.7c-3.9 3-9.7 6.7-14.6 7.6l2.4.7c-.7-.7.8-6.1 1-7.1s.8-4.7 1.3-7a132.3 132.3 0 0 1 3.4-13.8c3.1-9.6 8.8-17.6 15-25.5 2-2.5-1.5-6-3.5-3.5-8.5 10.7-15 21.2-18.2 34.5-.9 3.8-8.6 28.9.9 26.3 11.7-3.3 22.3-12.4 26.5-23.8s2.3-26.3-3.7-38.1c-1.4-2.8-5.7-.3-4.3 2.6zm-5.1-44.6C94 49 91.5 61.2 96.3 69.6a1 1 0 0 0 1.4.4c10.6-5.9 8.7-18.9 3.6-27.9a1 1 0 0 0-1.8.2c-1.1 4.7-2.2 9.4-3.4 14.1l2 .3a23.2 23.2 0 0 1 1.7-7.8c.4-1.1-1.4-1.9-1.8-.8-2 4.5-2.3 9.1-2.3 13.9l2-.2a10.2 10.2 0 0 1-.2-5.2h-2c-.3 3.1-1.5 9.5 1.8 11.3.7.3 1.6-.1 1.5-.9a83.9 83.9 0 0 1 2.3-21.7h-1.9c.8 3.1-.5 7.4-.8 10.6s-.5 7-.6 10.5c-.1 1.1 1.6 1.3 1.9.2a48.9 48.9 0 0 0 2.4-19.4l-1.9.2c1.2 6.1 1.8 12.1-1.1 17.8l1.9.8c1.6-4.6 2.9-9 2.6-13.9h-2a21.1 21.1 0 0 1-.5 7.9l1.9.5a38.3 38.3 0 0 0 .7-5.8l-2 .2a12.2 12.2 0 0 1 0 5.7c-.3 1.2 1.6 1.8 1.9.5a33.9 33.9 0 0 0 .6-6.4 1 1 0 0 0-2 0 29.4 29.4 0 0 1-.5 5.9l1.9.5a16.8 16.8 0 0 0 0-6.7c-.2-1.1-1.9-.8-1.9.3a19.2 19.2 0 0 1-.6 5.3c-.3 1.2 1.6 1.8 1.9.5a20 20 0 0 0 .6-8.4c-.1-1.3-2.1-1.3-2 0 .3 4.7-1 8.9-2.6 13.4-.3 1 1.4 1.8 1.9.7 3.1-6.2 2.5-12.7 1.2-19.3a1 1 0 0 0-2 .3 48.5 48.5 0 0 1-2.3 18.9l2 .3c.1-4.2.3-8.3.8-12.4s1.3-6.1.5-9.2a1 1 0 0 0-1.9 0A83.1 83.1 0 0 0 96.8 67l1.6-.8c-2-1.1-1.1-7.7-.9-9.6a1 1 0 0 0-2 0 13.7 13.7 0 0 0 .3 5.7c.2 1.1 1.9.8 1.9-.3 0-4.4.2-8.7 2-12.9l-1.8-.8a24.8 24.8 0 0 0-1.8 8.4c-.1 1.1 1.7 1.4 1.9.3 1.2-4.7 2.4-9.4 3.4-14.2l-1.8.3c4.5 8.1 6.8 19.7-2.9 25.2l1.3.3c-4.3-7.7-1.8-19.3 3.2-26.3.7-1-1-2-1.8-1z"/><path fill="#eaa12e" d="M88.8 138.6c1.5-8.3 2.5-16.9 5.6-24.8s8-15.6 12.8-22.9l-4.6-.6c3.5 9.9 1.9 20 .1 30-.6 3.1 4.1 4.5 4.8 1.3 1.2-6.1 2.1-12.3 2.7-18.4l-4.9.6c2.6 6.6-.6 15-3.9 20.8a30.9 30.9 0 0 1-14.2 12.8l3.8 2.1c1.8-14.9 6.1-29.4 14.9-41.8l-4.6-.6c1.3 3.7 0 7.4-.6 11.2s-.7 6.7-1.3 10.1c-1.1 6.1-3.3 12.1-9.2 15.1l3.7 2.9c2.6-9.8 5.5-19.5 8.5-29.2h-4.9c1.1 3.1-1.1 8.1-1.8 11.2l-2.3 10.5c-.8 3.1 4.1 4.5 4.8 1.3l3.2-14.3c.8-3.3 2.1-6.7 1-10.1a2.6 2.6 0 0 0-4.9 0c-2.9 9.7-5.8 19.5-8.4 29.2a2.5 2.5 0 0 0 3.6 2.9c6.4-3.3 9.7-9.6 11.2-16.4 1-4.8 1.2-9.8 2.1-14.6s1.5-7.3.1-11.1a2.5 2.5 0 0 0-4.5-.6c-9.3 13.1-13.7 28.5-15.6 44.3-.3 2.1 2.2 2.8 3.7 2.2a34.4 34.4 0 0 0 16.7-15.9c3.5-6.7 6.7-15.9 3.8-23.3a2.6 2.6 0 0 0-5 .7 167.8 167.8 0 0 1-2.5 17.1l4.8 1.3c2-10.8 3.7-21.9-.1-32.6a2.5 2.5 0 0 0-4.5-.6c-4.7 7.2-9.4 14.4-12.7 22.4s-4.6 17.5-6.2 26.5c-.6 3.1 4.2 4.5 4.8 1.3z"/><path fill="none" stroke="#fbf9d9" stroke-linecap="round" stroke-miterlimit="10" stroke-width="3" d="M88.9 32.2l6.7-8.1a8.3 8.3 0 0 1 3-2.3 5.4 5.4 0 0 1 6.4 1.5c2.6 2.8 4.5 5.1 5.6 6.3a4.3 4.3 0 0 1 1 3.1 3.2 3.2 0 0 1-1.1 2.9c-1.4 1.1-3.9.5-5-.1a4.7 4.7 0 0 1-1.3-1.1l-2.9-3.3s-2.4-1.9-3.9 0-3.3 4.2-3.3 4.2M63 32.2l-6.7-8.1a7.6 7.6 0 0 0-3-2.3 5.5 5.5 0 0 0-6.4 1.5l-5.5 6.3a4.9 4.9 0 0 0-1.1 3.1c.1 1.1.1 2.2 1.1 2.9s3.9.5 5.1-.1a6.9 6.9 0 0 0 1.3-1.1l2.8-3.3s2.4-1.9 3.9 0l3.4 4.2m11.4 108.3l-3.6 7s-2 3.6 0 4.9l1.2.6a4.5 4.5 0 0 0 4.7-2.3l5.6-10.2M60.8 29.5s16-9.7 30.4 0m4.5 3.8s19.9 23.3 2.8 36m-42.7-36S36 56.6 53 69.3"/><path fill="none" stroke="#fbf9d9" stroke-linecap="round" stroke-miterlimit="10" stroke-width="3" d="M68.4 145.4a38.8 38.8 0 0 1-33-38.3c0-21.5 21.9-48.6 40-48.6S116 85.6 116 107.1s-19.3 37.8-40 38.7"/></svg>